<?xml version="1.0" encoding="utf-8"?>
<!-- Generator: Adobe Illustrator 19.0.0, SVG Export Plug-In . SVG Version: 6.00 Build 0)  -->
<svg version="1.1" id="图层_1" xmlns="http://www.w3.org/2000/svg" xmlns:xlink="http://www.w3.org/1999/xlink" x="0px" y="0px"
	 viewBox="-292 277 495 57" style="enable-background:new -292 277 495 57;" xml:space="preserve">
<style type="text/css">
	.st0{fill:#FFFFFF;}
</style>
<title>南京大学现象学研究所</title>
<desc>Created with Sketch.</desc>
<g id="Page-1">
	<g id="搜索结果页" transform="translate(-72.000000, -69.000000)">
		<path id="南京大学现象学研究所" class="st0" d="M-199.3,346.4l0.8,0.8l0.8,0.8c1.2,3.1,3.3,4.7,6.2,4.7l2.3,3.9
			c0,1.4-2.9,2.5-8.6,3.1l-6.2,6.2h-0.8l2.3-7c-3.1-1.2-4.7-2.2-4.7-3.1v-1.6l5.5-0.8V351C-201.3,347.9-200.5,346.4-199.3,346.4
			L-199.3,346.4z M-192.3,362l0.8,3.1h3.9c9.9,2,14.8,4,14.8,6.2v3.1c-2.3,1.8-5.2,8.1-8.6,18.8l-4.7,1.6h-1.6c-1.6,0-3.9-1-7-3.1
			c0,3.8-0.8,5.9-2.3,6.2h-1.6l-0.8-3.1l1.6-8.6l-5.5,2.3l-0.8-0.8v-2.3l8.6-9.4l-0.8-0.8h-0.8c-3,3.6-6.1,5.5-9.4,5.5l-0.8-0.8
			v-0.8l1.6-1.6l-2.3-6.2h-3.1v-0.8c0-2.1,5.7-3.9,17.2-5.5C-193.9,363-193.4,362-192.3,362L-192.3,362z M-193.9,370.6
			c2.1,0,3.1,0.5,3.1,1.6l-2.3,6.2l1.6,1.6v1.6c-2.1,1.8-3.1,3.6-3.1,5.5v1.6l7.8,2.3c3.4,0,6-6,7.8-18c-5.1-2.6-8.5-3.9-10.2-3.9
			h-3.1L-193.9,370.6z M-204,370.6l0.8,5.5c2.3-0.9,4.4-2.7,6.2-5.5v-0.8l-0.8,0.8h-1.6l-0.8-0.8L-204,370.6z M-218.1,370.6
			c5.2,7.6,7.8,14.1,7.8,19.5c-0.3,4.2-1,6.2-2.3,6.2h-0.8l-5.5-5.5l0.8-4.7l-0.8-0.8v-0.8l0.8-0.8l-1.6-12.5l0.8-0.8H-218.1z
			 M-144.9,351.8c2.5,0,5.1,1.8,7.8,5.5c2.9,0,4.7,1,5.5,3.1v2.3c0,2.6-4.4,4.4-13.3,5.5c-4.2,3.1-6.2,6.2-6.2,9.4h0.8
			c5.5-4.7,9.6-7,12.5-7l1.6,3.9c-0.9,0.1-2.5,2.2-4.7,6.2l0.8,0.8l-0.8,5.5v7l-3.9,3.9h-3.9l-0.8-0.8l-0.8,0.8h-3.9l-3.9-3.9
			l1.6-1.6l7,1.6l4.7-2.3l-0.8-3.9l-0.8,0.8h-0.8l-1.6-1.6v-0.8c0-2,1.3-4.3,3.9-7v-0.8h-0.8c-2.9,3.9-4.7,8.3-5.5,13.3h-0.8
			c-1.2,0-2-1.8-2.3-5.5c0-4,1.3-9.5,3.9-16.4h-0.8l-7,1.6l-1.6-2.3v-0.8c0-4.7,2.9-7,8.6-7l5.5-4.7c0-1.6-0.8-2.3-2.3-2.3l-0.8-0.8
			v-0.8l0.8-0.8H-144.9z M-162,385.4h0.8l2.3,8.6l-3.1,3.1l-3.1-3.1C-164.4,388.3-163.3,385.4-162,385.4L-162,385.4z M-132.4,387.8
			l4.7,3.9v1.6l-3.9,3.9l-3.9-8.6l0.8-0.8H-132.4z M-99.1,353.2l4.7,5.5c-1,1.7-1.8,5.9-2.3,12.5c3.9-2.1,7.3-3.1,10.2-3.1
			c2.3,1,3.6,2.1,3.9,3.1c0,2.3-5.2,4.9-15.6,7.8c-2.5,8.7-5.9,14.5-10.2,17.2c-3.8,3.1-6.4,4.7-7.8,4.7l-2.3-3.9
			c0-1,2.9-3.6,8.6-7.8l5.5-8.6c0-1-2.1-1.6-6.2-1.6l-3.9-3.1l12.5-3.9v-14.8c-1.6,0-2.3-0.5-2.3-1.6L-99.1,353.2z M-95.2,383.7h0.8
			c6.9,4.2,13.7,7.6,20.3,10.2l1.6,2.3c-1.3,2.2-3.1,3.8-5.5,4.7C-89.5,397.6-95.2,391.9-95.2,383.7L-95.2,383.7z M-50.7,351.4h2.3
			c3.1,1.8,4.7,4.2,4.7,7h0.8c2.6-1.8,3.9-4.2,3.9-7h3.1l2.3,2.3v0.8c-3.6,4.7-6.8,7-9.4,7v0.8H-32l1.6,1.6v2.3
			c0,1.2-3.9,2.7-11.7,4.7v0.8c2.6,0,3.9,0.5,3.9,1.6v1.6l-5.5,6.2v2.3h8.6l2.3,2.3v0.8l-0.8,0.8v0.8l-5.5-0.8h-0.8l-0.8,0.8h-0.8
			l0.8,3.9v0.8c0,2.7-2.3,6.1-7,10.2h-1.6l-10.2-10.2v-1.6c0.4-2,4.6-4.6,12.5-7.8c0-2.3,0.8-4.4,2.3-6.2h-0.8l-7,1.6l-0.8-0.8v-3.1
			l11.7-8.6h-6.2l-11.7,4.7v15.6l-2.3,2.3h-1.6c-1.3,0-2.1-1-2.3-3.1c0-13,3.1-19.5,9.4-19.5v-0.8c-3.1,0-4.7-4.2-4.7-12.5l0.8-0.8
			h1.6c4.7,3,7,6.6,7,10.9h1.6l1.6-1.6C-49.5,361.6-50.3,358.2-50.7,351.4L-50.7,351.4z M-56.2,391.3v0.8L-46,396h1.6v-5.5l-3.1-3.1
			h-0.8L-56.2,391.3z M13.9,360.8h1.6v15.6c0,8.3-1.8,12.5-5.5,12.5v0.8l3.1,1.6h0.8c6.8,0,10.2-2.1,10.2-6.2l-0.8-2.3l0.8-0.8h1.6
			l2.3,9.4l-4.7,4.7H11.6c-1,0-3.4-3.4-7-10.2H3.8c-4.6,6.3-7.7,9.9-9.4,10.9l-1.6-1.6v-1.6l5.5-7v-6.2l-16.4,17.2l-1.6-1.6v-1.6
			l2.3-4.7l-2.3-6.2v-1.6l7-5.5v-2.3h1.6c0,1.7,1.3,3,3.9,3.9v0.8l-3.1,6.2v0.8c4.8-2.9,8.7-9.1,11.7-18.8l0.8-0.8H3l1.6,1.6
			l-2.3,14.1h1.6c0-1.7,2.1-4.3,6.2-7.8h0.8l-1.6,4.7L10,385h2.3v-21.1l-0.8-0.8v-0.8l-3.9,0.8H6.1v-1.6L13.9,360.8z M-15.8,364.9
			h4.7c3.1,0.3,4.7,1,4.7,2.3v3.1c0,1.6-1,2.3-3.1,2.3c-5.2-0.4-7.8-1.4-7.8-3.1v-3.1L-15.8,364.9z M-16.5,386v2.3l1.6,1.6l1.6-6.2
			h-0.8L-16.5,386z M51.4,348.5l3.9,2.3l5.5-1.6l3.1,3.9l-3.9,7h0.8l4.7-0.8l1.6,4.7c-1.3,0-5.2,3.9-11.7,11.7
			c1.7,0,3.3,1.8,4.7,5.5l6.2-1.6v1.6c0,1.3-1.8,2.6-5.5,3.9v0.8c9.9,3.5,14.8,5.9,14.8,7l-2.3,2.3c-3,0-6.1-1.3-9.4-3.9h-2.3
			c0,3.9-3.9,7-11.7,9.4c-5.7,0-10.4-2.6-14.1-7.8v-0.8l10.9-9.4l0.8,4.7l3.1-1.6l-2.3-3.9v-2.3l2.3-3.1v-0.8l-0.8,0.8h-2.3
			l-0.8-0.8H46c0,3.4-0.8,5.2-2.3,5.5l-2.3-2.3c0.8-9.9,2.3-14.8,4.7-14.8v-0.8c-2.1,0-3.1-1.6-3.1-4.7v-0.8
			c2.5-2.5,4.3-5.6,5.5-9.4H51.4z M53,357.1v1.6h1.6c0-1.6,0.8-2.3,2.3-2.3v-1.6h-0.8l-2.3,2.3H53z M46.8,371.9h0.8
			c5.2-2.5,7.8-4.6,7.8-6.2h-4.7C48.1,367,46.8,369.1,46.8,371.9L46.8,371.9z M53,382.1v0.8h1.6v0.8l2.3-1.6l-0.8-2.3h-0.8L53,382.1
			z M53,386.8l-7,7.8h-0.8c-1,0-1.6-0.8-1.6-2.3s0.8-2.3,2.3-2.3v-0.8h-0.8c-1.6,0.4-3.6,2-6.2,4.7l0.8,2.3l10.2,0.8
			c5.7-1.6,8.6-4.2,8.6-7.8h-0.8l-3.9-2.3H53z M99.3,351.4h2.3c3.1,1.8,4.7,4.2,4.7,7h0.8c2.6-1.8,3.9-4.2,3.9-7h3.1l2.3,2.3v0.8
			c-3.6,4.7-6.8,7-9.4,7v0.8H118l1.6,1.6v2.3c0,1.2-3.9,2.7-11.7,4.7v0.8c2.6,0,3.9,0.5,3.9,1.6v1.6l-5.5,6.2v2.3h8.6l2.3,2.3v0.8
			l-0.8,0.8v0.8l-5.5-0.8h-0.8l-0.8,0.8h-0.8l0.8,3.9v0.8c0,2.7-2.3,6.1-7,10.2h-1.6l-10.2-10.2v-1.6c0.4-2,4.6-4.6,12.5-7.8
			c0-2.3,0.8-4.4,2.3-6.2h-0.8l-7,1.6l-0.8-0.8v-3.1l11.7-8.6h-6.2L90.7,371v15.6l-2.3,2.3h-1.6c-1.3,0-2.1-1-2.3-3.1
			c0-13,3.1-19.5,9.4-19.5v-0.8c-3.1,0-4.7-4.2-4.7-12.5l0.8-0.8h1.6c4.7,3,7,6.6,7,10.9h1.6l1.6-1.6
			C100.5,361.6,99.7,358.2,99.3,351.4L99.3,351.4z M93.8,391.3v0.8L104,396h1.6v-5.5l-3.1-3.1h-0.8L93.8,391.3z M145.6,356.3h1.6
			c1,0,1.6,0.8,1.6,2.3l-7.8,12.5v0.8l10.2-1.6l1.6,2.3l-0.8,0.8v0.8h3.1l3.9-9.4c-2.6,0-3.9-0.5-3.9-1.6v-0.8
			c0-1.2,5.2-2.7,15.6-4.7h1.6l0.8,0.8c0,2.1-1.3,3.1-3.9,3.1l-1.6,3.1l1.6,1.6v3.9l3.9,0.8c-0.4,2.6-1.7,3.9-3.9,3.9v20.3
			c0,2.7-1,4.6-3.1,5.5c-0.8,0-1.6-1-2.3-3.1c1.6-4.6,2.3-9.8,2.3-15.6v-5.5h-0.8l-4.7,1.6h-3.1l-1.6,9.4h1.6v0.8l-0.8,2.3H155
			l-0.8-4.7l0.8-7h-0.8l-3.9-0.8c0,1.7-3.9,4.3-11.7,7.8h-0.8c-1,0-1.6-1.8-1.6-5.5l-4.7,5.5l-1.6-1.6c0-3.1,1.3-5.7,3.9-7.8
			l6.2-11.7v-0.8l-0.8,0.8H137l-3.1-3.1C137,361.3,140.9,359.4,145.6,356.3L145.6,356.3z M161.2,364.9v1.6h2.3
			c-1,2.6-2.6,3.9-4.7,3.9l-0.8,3.9h0.8c4.7-0.9,7-2,7-3.1v-4.7h-2.3l3.1-3.9h-0.8C162.8,363.1,161.2,363.9,161.2,364.9L161.2,364.9
			z M140.9,375.1v4.7h1.6c2-1,3.3-2.6,3.9-4.7H140.9z M196.4,356.7h3.1c2.9,0,4.7,1,5.5,3.1v0.8l-0.8,0.8v0.8h1.6l4.7-1.6
			c3.1,1,4.7,2.1,4.7,3.1v0.8c-5.3,4.3-9.2,9-11.7,14.1l-0.8,0.8l3.1,3.9l-1.6,8.6h0.8l7,0.8c5.6,0,9.5-3.1,11.7-9.4l0.8-0.8v4.7
			c0,7.3-6.8,10.9-20.3,10.9c-3.1-0.8-4.7-1.6-4.7-2.3v-3.9l0.8-7.8h-0.8l-14.8,13.3l-0.8-0.8v-0.8l0.8-3.9h0.8l0.8,0.8
			c1-0.1,3.4-2.5,7-7v-0.8c-1.7,0-3.5,0.8-5.5,2.3v-0.8c2.1-2.5,5.7-4.8,10.9-7l3.1-5.5H201l-6.2,4.7h-3.1v-2.3l3.9-6.2h-0.8
			c-2.5,0-4.8,2.3-7,7l-0.8,0.8h-0.8l-1.6-1.6v-3.9l6.2-7.8h1.6v2.3c6.3-1.7,9.4-3,9.4-3.9c-2,0-3.8-1.8-5.5-5.5V356.7z
			 M243.4,350.9h0.8c1,0,2.6,2.1,4.7,6.2l-5.5,6.2l-3.9,2.3H238l-2.3-2.3l6.2-8.6C241.9,352.2,242.4,350.9,243.4,350.9L243.4,350.9z
			 M262.2,354.8h7.8v1.6l-1.6,1.6h-6.2l-3.9-0.8v0.8l2.3,3.1v4.7h3.1c0,1-0.8,1.6-2.3,1.6c-1.7,15.1-3.5,22.7-5.5,22.7l-2.3-2.3
			l3.9-23.4l-3.1-5.5C254.4,357.5,257,356.2,262.2,354.8L262.2,354.8z M273.1,363.4l1.6,1.6c0,1-1,1.6-3.1,1.6
			c-0.4,7.8-0.9,11.7-1.6,11.7l0.8,2.3l-0.8,2.3l3.1,16.4l-2.3,1.6c-2.1,0-3.1-5.7-3.1-17.2l1.6-18h-3.9v-1.6L273.1,363.4z
			 M233.3,367.3c2,0,3.8,1.8,5.5,5.5l11.7-3.1l0.8,0.8v0.8l-2.3,3.1l1.6,1.6v1.6c0,0.9-3.9,2.5-11.7,4.7v5.5c0,2.2-1,4-3.1,5.5v0.8
			h-2.3c0-1-1-2.3-3.1-3.9v-2.3l3.9-4.7v-6.2c0-3-1-5.3-3.1-7L233.3,367.3z M239.5,376.6v1.6h0.8c2.7-1.3,4.3-2.9,4.7-4.7h-2.3
			L239.5,376.6z"/>
	</g>
</g>
</svg>
